<?xml version="1.0" standalone="no"?>
<!DOCTYPE svg PUBLIC "-//W3C//DTD SVG 20010904//EN"
 "http://www.w3.org/TR/2001/REC-SVG-20010904/DTD/svg10.dtd">
<svg version="1.0" xmlns="http://www.w3.org/2000/svg"
 width="2rem" viewBox="0 0 1130.000000 828.000000"
 preserveAspectRatio="xMidYMid meet">

<g transform="translate(0.000000,828.000000) scale(0.100000,-0.100000)"
fill="#FFFF" >
<path d="M3815 7064 c-11 -2 -44 -9 -72 -15 -29 -6 -53 -15 -53 -20 0 -5 -7
-9 -16 -9 -26 0 -116 -42 -167 -77 -26 -18 -49 -33 -52 -33 -2 0 -24 -21 -47
-47 -24 -26 -53 -58 -65 -71 -13 -12 -23 -25 -23 -27 0 -2 -13 -25 -29 -50
-28 -44 -71 -165 -71 -198 0 -9 -6 -17 -12 -20 -17 -5 -18 -274 -2 -285 6 -4
18 -36 28 -72 21 -76 70 -179 94 -200 10 -8 35 -36 55 -62 21 -26 64 -64 95
-85 31 -21 62 -43 67 -49 14 -15 128 -60 195 -76 77 -18 290 -16 361 4 71 20
159 57 179 75 8 8 43 34 76 58 34 24 77 64 95 89 18 25 36 46 40 46 16 0 89
157 104 225 4 16 12 33 18 37 17 11 17 300 0 305 -7 3 -13 10 -13 18 0 27 -42
141 -72 194 -47 83 -188 219 -271 259 -38 18 -81 35 -98 39 -16 3 -29 9 -29
13 0 22 -251 49 -315 34z m201 -145 c32 -6 97 -29 144 -51 236 -113 365 -383
305 -637 -37 -155 -155 -305 -294 -376 -227 -114 -482 -74 -662 105 -223 220
-223 577 1 800 135 135 318 193 506 159z"/>
</g>
</svg>
